<svg width="18" height="19" viewBox="0 0 18 19" fill="none" xmlns="http://www.w3.org/2000/svg">
<path d="M0.454102 9.1515C0.454102 4.63701 4.11382 0.977295 8.6283 0.977295H9.48875C14.0032 0.977295 17.6629 4.63701 17.6629 9.1515V10.0119C17.6629 14.5264 14.0032 18.1861 9.48875 18.1861H8.6283C4.11382 18.1861 0.454102 14.5264 0.454102 10.0119V9.1515Z" fill="#FBFBFB"/>
<path fill-rule="evenodd" clip-rule="evenodd" d="M9.48875 1.27845H8.6283C4.28014 1.27845 0.755256 4.80333 0.755256 9.1515V10.0119C0.755256 14.3601 4.28014 17.885 8.6283 17.885H9.48875C13.8369 17.885 17.3618 14.3601 17.3618 10.0119V9.1515C17.3618 4.80333 13.8369 1.27845 9.48875 1.27845ZM8.6283 0.977295C4.11382 0.977295 0.454102 4.63701 0.454102 9.1515V10.0119C0.454102 14.5264 4.11382 18.1861 8.6283 18.1861H9.48875C14.0032 18.1861 17.6629 14.5264 17.6629 10.0119V9.1515C17.6629 4.63701 14.0032 0.977295 9.48875 0.977295H8.6283Z" fill="#555555"/>
<path d="M8.29399 6.77966H9.82241C9.82241 6.57698 9.7419 6.3826 9.59858 6.23929C9.45526 6.09597 9.26088 6.01545 9.0582 6.01545C8.85552 6.01545 8.66114 6.09597 8.51782 6.23929C8.37451 6.3826 8.29399 6.57698 8.29399 6.77966ZM7.78452 6.77966C7.78452 6.44186 7.91871 6.1179 8.15757 5.87903C8.39643 5.64017 8.7204 5.50598 9.0582 5.50598C9.396 5.50598 9.71997 5.64017 9.95883 5.87903C10.1977 6.1179 10.3319 6.44186 10.3319 6.77966H12.8792C12.9468 6.77966 13.0116 6.8065 13.0594 6.85427C13.1071 6.90205 13.134 6.96684 13.134 7.0344C13.134 7.10196 13.1071 7.16675 13.0594 7.21452C13.0116 7.2623 12.9468 7.28914 12.8792 7.28914H12.3423L11.734 12.5591C11.691 12.9316 11.5125 13.2754 11.2326 13.5249C10.9526 13.7744 10.5907 13.9123 10.2157 13.9123H7.90068C7.52569 13.9123 7.16379 13.7744 6.88384 13.5249C6.6039 13.2754 6.42545 12.9316 6.38245 12.5591L5.77414 7.28914H5.23716C5.1696 7.28914 5.1048 7.2623 5.05703 7.21452C5.00926 7.16675 4.98242 7.10196 4.98242 7.0344C4.98242 6.96684 5.00926 6.90205 5.05703 6.85427C5.1048 6.8065 5.1696 6.77966 5.23716 6.77966H7.78452ZM8.54873 8.81755C8.54873 8.74999 8.52189 8.6852 8.47412 8.63743C8.42635 8.58965 8.36155 8.56282 8.29399 8.56282C8.22643 8.56282 8.16164 8.58965 8.11387 8.63743C8.06609 8.6852 8.03926 8.74999 8.03926 8.81755V11.8744C8.03926 11.9419 8.06609 12.0067 8.11387 12.0545C8.16164 12.1023 8.22643 12.1291 8.29399 12.1291C8.36155 12.1291 8.42635 12.1023 8.47412 12.0545C8.52189 12.0067 8.54873 11.9419 8.54873 11.8744V8.81755ZM9.82241 8.56282C9.75485 8.56282 9.69006 8.58965 9.64228 8.63743C9.59451 8.6852 9.56767 8.74999 9.56767 8.81755V11.8744C9.56767 11.9419 9.59451 12.0067 9.64228 12.0545C9.69006 12.1023 9.75485 12.1291 9.82241 12.1291C9.88997 12.1291 9.95476 12.1023 10.0025 12.0545C10.0503 12.0067 10.0771 11.9419 10.0771 11.8744V8.81755C10.0771 8.74999 10.0503 8.6852 10.0025 8.63743C9.95476 8.58965 9.88997 8.56282 9.82241 8.56282Z" fill="#555555"/>
</svg>
