<svg width="28" height="28" viewBox="0 0 28 28" fill="none" xmlns="http://www.w3.org/2000/svg">
<rect x="1.25" y="1.25" width="25.5" height="25.5" rx="12.75" fill="#1F1935"/>
<g clip-path="url(#clip0_2269_4951)">
<path d="M18.2918 10.3203H16.7151L16.5315 9.76953C16.4431 9.5021 16.2724 9.2694 16.044 9.10458C15.8156 8.93976 15.5409 8.85122 15.2592 8.85156H12.9908C12.7091 8.85135 12.4346 8.93995 12.2063 9.10475C11.9779 9.26956 11.8073 9.50219 11.7188 9.76953L11.5349 10.3203H9.95816C9.60263 10.3207 9.26177 10.4621 9.01038 10.7135C8.75898 10.9649 8.61758 11.3058 8.61719 11.6613V17.0589C8.61796 17.4142 8.75954 17.7547 9.0109 18.0058C9.26225 18.2568 9.60288 18.3981 9.95816 18.3984H18.2933C18.6486 18.3977 18.9891 18.2561 19.2401 18.0047C19.4912 17.7534 19.6324 17.4127 19.6328 17.0575V11.6598C19.632 11.3045 19.4905 10.9641 19.2391 10.713C18.9878 10.4619 18.6471 10.3207 18.2918 10.3203ZM18.8984 17.0575C18.8982 17.2183 18.8343 17.3725 18.7206 17.4862C18.6068 17.5999 18.4527 17.6639 18.2918 17.6641H9.95816C9.79734 17.6639 9.64316 17.5999 9.52944 17.4862C9.41573 17.3725 9.35176 17.2183 9.35156 17.0575V11.6598C9.35214 11.4992 9.41629 11.3454 9.52996 11.2321C9.64364 11.1187 9.79759 11.0549 9.95816 11.0547H11.7996C11.8766 11.0546 11.9517 11.0303 12.0142 10.9853C12.0766 10.9402 12.1234 10.8766 12.1477 10.8035L12.4154 10.0005C12.4556 9.87971 12.5328 9.77465 12.6361 9.70024C12.7394 9.62582 12.8635 9.58583 12.9908 9.58594H15.2592C15.3866 9.5858 15.5108 9.62582 15.6141 9.70031C15.7174 9.77481 15.7945 9.87997 15.8346 10.0009L16.1023 10.8035C16.1266 10.8766 16.1734 10.9402 16.2358 10.9853C16.2983 11.0303 16.3734 11.0546 16.4504 11.0547H18.2918C18.4527 11.0549 18.6068 11.1189 18.7206 11.2326C18.8343 11.3463 18.8982 11.5005 18.8984 11.6613V17.0575Z" fill="white"/>
<path d="M14.125 11.4219C13.5803 11.4219 13.0479 11.5834 12.595 11.886C12.1421 12.1886 11.7892 12.6187 11.5807 13.1219C11.3723 13.6251 11.3178 14.1788 11.424 14.713C11.5303 15.2472 11.7926 15.7379 12.1777 16.1231C12.5628 16.5082 13.0535 16.7705 13.5877 16.8768C14.1219 16.983 14.6757 16.9285 15.1789 16.7201C15.6821 16.5116 16.1122 16.1586 16.4148 15.7058C16.7174 15.2529 16.8789 14.7205 16.8789 14.1758C16.8781 13.4456 16.5877 12.7456 16.0714 12.2293C15.5552 11.713 14.8551 11.4227 14.125 11.4219ZM14.125 16.1953C13.7256 16.1953 13.3351 16.0769 13.003 15.855C12.6709 15.6331 12.4121 15.3176 12.2592 14.9486C12.1063 14.5796 12.0664 14.1735 12.1443 13.7818C12.2222 13.39 12.4145 13.0302 12.697 12.7478C12.9794 12.4653 13.3393 12.273 13.731 12.1951C14.1228 12.1171 14.5288 12.1571 14.8978 12.31C15.2669 12.4628 15.5823 12.7217 15.8042 13.0538C16.0261 13.3859 16.1445 13.7764 16.1445 14.1758C16.1439 14.7112 15.931 15.2246 15.5524 15.6032C15.1738 15.9818 14.6604 16.1947 14.125 16.1953Z" fill="white"/>
<path d="M17.7969 12.5234C17.9997 12.5234 18.1641 12.359 18.1641 12.1562C18.1641 11.9535 17.9997 11.7891 17.7969 11.7891C17.5941 11.7891 17.4297 11.9535 17.4297 12.1562C17.4297 12.359 17.5941 12.5234 17.7969 12.5234Z" fill="white"/>
</g>
<rect x="1.25" y="1.25" width="25.5" height="25.5" rx="12.75" stroke="white" stroke-width="1.5"/>
<defs>
<clipPath id="clip0_2269_4951">
<rect width="11.75" height="11.75" fill="white" transform="translate(8.25 7.75)"/>
</clipPath>
</defs>
</svg>
