<svg width="17" height="17" viewBox="0 0 17 17" fill="none" xmlns="http://www.w3.org/2000/svg">
<g clip-path="url(#clip0_1775_3112)">
<path d="M14.3618 7.72721L5.40919 7.72721C4.98244 7.72721 4.63647 8.07318 4.63647 8.49994C4.63647 8.92669 4.98244 9.27266 5.40919 9.27266L14.3618 9.27266L13.3627 10.2717C13.0609 10.5734 13.0609 11.0627 13.3627 11.3645C13.6643 11.6663 14.1536 11.6663 14.4555 11.3645L16.7735 9.04646C16.7914 9.02858 16.8083 9.00989 16.8244 8.99031C16.8283 8.98552 16.8316 8.98037 16.8355 8.97547C16.8473 8.96048 16.8588 8.94544 16.8695 8.92957C16.8726 8.92494 16.8751 8.92004 16.8781 8.91535C16.8887 8.89877 16.8991 8.88202 16.9085 8.86456C16.9103 8.86111 16.9118 8.85745 16.9136 8.854C16.9233 8.83509 16.9327 8.81593 16.9409 8.79615C16.9419 8.79373 16.9427 8.79115 16.9436 8.78868C16.952 8.76787 16.9598 8.7468 16.9664 8.72511C16.9673 8.72238 16.9678 8.71955 16.9685 8.71676C16.9748 8.69549 16.9805 8.67401 16.9849 8.65201C16.9861 8.64547 16.9867 8.63872 16.9879 8.63212C16.9911 8.61389 16.9943 8.59565 16.9961 8.57705C16.9987 8.55155 17 8.5258 17 8.49994C17 8.47408 16.9987 8.44832 16.9961 8.42277C16.9943 8.40391 16.991 8.38552 16.9878 8.36713C16.9867 8.36074 16.9861 8.3542 16.9849 8.34786C16.9804 8.32566 16.9748 8.30397 16.9685 8.28249C16.9677 8.27997 16.9672 8.27729 16.9665 8.27476C16.9598 8.25297 16.952 8.2317 16.9435 8.21068C16.9426 8.20841 16.9419 8.20599 16.941 8.20372C16.9327 8.18379 16.9233 8.16452 16.9135 8.14551C16.9118 8.14216 16.9103 8.13866 16.9086 8.13531C16.8991 8.11775 16.8886 8.10085 16.8779 8.08411C16.875 8.07957 16.8725 8.07478 16.8695 8.07035C16.8588 8.05443 16.8472 8.03929 16.8354 8.02425C16.8316 8.0194 16.8283 8.0143 16.8244 8.00956C16.8083 7.99004 16.7914 7.97129 16.7735 7.95341L14.4555 5.63538C14.3046 5.48445 14.1069 5.40903 13.9091 5.40903C13.7113 5.40903 13.5136 5.48445 13.3627 5.63538C13.0609 5.93716 13.0609 6.4264 13.3627 6.72818L14.3618 7.72721Z" fill="#FF5F07"/>
<path d="M6.32118 14.8209C8.43041 14.8209 10.3928 13.7745 11.5707 12.0219C11.8087 11.6678 11.7146 11.1877 11.3604 10.9496C11.0062 10.7116 10.5261 10.8057 10.288 11.1599C9.39776 12.4847 7.91485 13.2755 6.32118 13.2755C3.68798 13.2755 1.54567 11.1332 1.54567 8.49996C1.54567 5.86671 3.68798 3.72446 6.32118 3.72446C7.91016 3.72446 9.39066 4.51176 10.2816 5.83045C10.5205 6.1841 11.0008 6.27703 11.3545 6.03816C11.7081 5.79923 11.8011 5.3189 11.5622 4.9653C10.3835 3.22059 8.42423 2.179 6.32118 2.179C2.83582 2.179 0.000215434 5.01455 0.000215129 8.49996C0.000214825 11.9854 2.83582 14.8209 6.32118 14.8209Z" fill="#FF5F07"/>
</g>
<defs>
<clipPath id="clip0_1775_3112">
<rect width="17" height="17" fill="white" transform="translate(17 17) rotate(-180)"/>
</clipPath>
</defs>
</svg>
